<svg id="ee09YuUacbX1" xmlns="http://www.w3.org/2000/svg" xmlns:xlink="http://www.w3.org/1999/xlink" viewBox="0 0 300 300" shape-rendering="geometricPrecision" text-rendering="geometricPrecision" project-id="64b2632b820e443d8aa89fd4c54d6f44" export-id="b56645a634174148beddeffc354e0ba9" cached="false"><path d="M77.55,54.69C66.45,60.3,60.3,66.45,54.69,77.55c-.893514,1.766862-2.705058,2.880765-4.685,2.880765s-3.791486-1.113903-4.685-2.880765C39.7,66.45,33.55,60.3,22.45,54.69c-1.766862-.893514-2.880765-2.705058-2.880765-4.685s1.113903-3.791486,2.880765-4.685C33.55,39.7,39.7,33.55,45.31,22.45c.893514-1.766862,2.705058-2.880765,4.685-2.880765s3.791486,1.113903,4.685,2.880765C60.3,33.55,66.45,39.7,77.55,45.31c1.772319.891572,2.890678,2.70606,2.890678,4.69s-1.118359,3.798428-2.890678,4.69Z" transform="matrix(-.23447 0.266677-.380312-.334381 214.751974 112.371817)" fill="#4b63ff"/><rect width="130.213385" height="34.917556" rx="10" ry="10" transform="translate(50 98)" fill="#4b63ff" stroke-width="0"/><ellipse rx="15" ry="15" transform="translate(202 108)" fill="#4b63ff" stroke-width="0"/></svg>
